<?xml version="1.0" encoding="UTF-8"?>
<svg width="100px" height="11px" viewBox="0 0 100 11" version="1.1" xmlns="http://www.w3.org/2000/svg">
    <title>billwerkplus-logo-black</title>
    <g id="Page-1" stroke="none" stroke-width="1" fill="none" fill-rule="evenodd">
        <g id="billwerkplus-logo-black" fill-rule="nonzero">
            <path
                d="M37.4749499,0.1002001 C37.5194848,0.1002001 37.5640165,0.1002001 37.6714367,0.129891683 C38.2789261,0.17290521 38.8237045,0.200868036 39.368058,0.194174048 C39.7059622,0.190018838 40.0432151,0.133316633 40.3807615,0.1002001 C40.4252964,0.1002001 40.4698282,0.1002001 40.5293375,0.13843016 C41.0904451,2.20637295 41.6365844,4.23608597 42.2158098,6.38877124 C42.327572,6.04180581 42.3978572,5.83854098 42.4586661,5.63247926 C43.0027842,3.78866563 43.5452356,1.94436032 44.0881764,0.1002001 C44.1327112,0.1002001 44.177243,0.1002001 44.284822,0.129661623 C45.029503,0.139482064 45.7111458,0.119841283 46.3927856,0.1002001 C46.4373204,0.1002001 46.4818522,0.1002001 46.5437773,0.138125651 C47.1713691,2.20933026 47.7815738,4.24260962 48.4280359,6.396698 C48.6336045,5.65216283 48.8073498,5.04599208 48.9680105,4.43637365 C49.3487066,2.99185251 49.7232013,1.54569609 50.1002004,0.1002001 C50.1447353,0.1002001 50.189267,0.1002001 50.2966872,0.129891283 C51.1749206,0.139788277 51.9902659,0.119994289 52.8056112,0.1002001 C52.8501461,0.1002001 52.894681,0.1002001 52.9730788,0.139301804 C51.9712277,3.5591492 50.9355136,6.93989529 49.8997996,10.3206413 C48.9959013,10.3206413 48.0920061,10.3206413 47.156092,10.2822665 C46.5217147,8.23408517 45.9193533,6.22427986 45.2764752,4.07928126 C44.6152957,6.26304379 44.0010331,8.29184228 43.3867735,10.3206413 C42.4828753,10.3206413 41.5789801,10.3206413 40.6285593,10.2818659 C39.5463412,6.86212745 38.5106456,3.48116433 37.4749499,0.1002001 Z"
                id="Path"
                fill="#919FA1"></path>
            <path
                d="M7.51503006,10.3206413 C7.37586242,10.3206413 7.23669549,10.3206413 7.02650571,10.2906603 C6.77410501,10.2473142 6.59274409,10.2225898 6.41134719,10.2223191 C4.30845251,10.2191841 2.20555251,10.2197445 0.101709398,10.1724437 C0.101550501,6.8182523 0.102309118,3.51094228 0.149726453,0.202343888 C2.16273437,0.200746393 4.12909289,0.202926954 6.09541723,0.195791583 C6.26813357,0.19516483 6.44062856,0.133509619 6.61322645,0.100200401 C6.78498647,0.100200401 6.95674569,0.100200401 7.18649369,0.137188878 C8.73964729,0.330325251 9.67909329,1.04373307 9.88251142,2.25908587 C10.0883324,3.48878948 9.8056503,4.52827655 8.65793096,4.9973994 C9.10308778,5.405048 9.68668297,5.74358327 9.98457946,6.25013527 C10.7796419,7.60208617 10.0825728,9.39977565 8.62397866,9.97951563 C8.26573036,10.1219078 7.88527585,10.2084326 7.51503006,10.3206413 M2.90632094,7.75974248 C2.97432024,7.82611673 3.04200741,7.94992465 3.11036543,7.95029539 C4.2277506,7.95636603 5.34571764,7.96466593 6.46246944,7.93355812 C7.05058036,7.91717715 7.32690972,7.61733737 7.32539234,7.11321703 C7.32389459,6.61984068 7.0372006,6.3208009 6.44327295,6.30814128 C5.2799986,6.28334539 4.11582325,6.30085551 2.96168106,6.30085551 C2.93739088,6.35163267 2.91177164,6.38043397 2.91150521,6.40946854 C2.90768076,6.82646653 2.90727174,7.24349549 2.90632094,7.75974248 M5.9369013,4.11137365 C6.020002,4.10972625 6.10367044,4.11375731 6.18611303,4.10552285 C6.78076733,4.04612745 7.08332715,3.7761486 7.08555572,3.30648858 C7.08788948,2.8088499 6.77562014,2.49694008 6.16097495,2.48294669 C5.08760291,2.45850992 4.01327325,2.47613868 2.93213186,2.47613868 C2.93213186,3.03906192 2.93213186,3.56196253 2.93213186,4.1114505 C3.91960792,4.1114505 4.88103928,4.1114505 5.9369013,4.11137365 Z"
                id="Shape"
                fill="#919FA1"></path>
            <path
                d="M73.0460922,0.1002002 C73.1529771,0.1002002 73.2598559,0.1002002 73.422333,0.136776754 C74.9424753,0.322896994 75.9657499,1.15421703 76.2512696,2.42643467 C76.6761306,4.31953226 76.1431676,5.51693287 74.3859606,6.585698 C75.1106644,7.68106343 75.8374354,8.77416834 76.5560479,9.87260621 C76.6442003,10.0073415 76.6887474,10.1706014 76.753507,10.3206413 C75.6826091,10.3206413 74.6117112,10.3206413 73.4910495,10.2858243 C72.747552,9.19098257 72.0568334,8.12895471 71.355663,7.07387675 C71.2817603,6.96267485 71.1497275,6.82044479 71.0388673,6.81520741 C70.4801999,6.78881563 69.9196121,6.80308677 69.3386774,6.80308677 C69.3386774,8.02008527 69.3386774,9.17036333 69.3386774,10.3206413 C68.401378,10.3206413 67.4640847,10.3206413 66.4835286,10.2738099 C66.4378072,6.85138507 66.4353365,3.47579279 66.4328657,0.1002002 C66.4774006,0.1002002 66.5219355,0.1002002 66.6295849,0.129568036 C66.7572205,0.171785571 66.8217171,0.195780561 66.8862444,0.195865832 C68.8338347,0.198440681 70.7814311,0.200205912 72.7290029,0.195017134 C72.8347809,0.194735271 72.9403998,0.133214429 73.0460922,0.1002002 M69.340457,3.65414709 C69.340457,3.91160591 69.340457,4.16906463 69.340457,4.41552275 C70.4517372,4.41552275 71.4865094,4.43899118 72.5195141,4.40638968 C73.1039839,4.38794349 73.4136364,4.02448036 73.4236356,3.4796487 C73.4339161,2.91936263 73.1518701,2.53730802 72.5676329,2.51327565 C71.5073335,2.46966102 70.4439519,2.50090731 69.340457,2.50090731 C69.340457,2.86116363 69.340457,3.20834659 69.340457,3.65414709 Z"
                id="Shape"
                fill="#919FA1"></path>
            <path
                d="M54.7094188,0.100200401 C54.7539537,0.100200401 54.7984886,0.100200401 54.9057955,0.130055411 C55.1497893,0.173420441 55.3309928,0.198536072 55.5122269,0.19870511 C58.3802248,0.20138006 61.2482289,0.200852906 64.1251253,0.247229359 C64.1340236,1.01854088 64.1340236,1.74368226 64.1340236,2.50403036 C61.9149493,2.50403036 59.7712882,2.50403036 57.6241839,2.50403036 C57.6241839,3.05036152 57.6241839,3.55853457 57.6241839,4.11213737 C59.4747478,4.11213737 61.3004573,4.11213737 63.1134094,4.11213737 C63.1134094,4.8651021 63.1134094,5.57141924 63.1134094,6.31002144 C61.2661052,6.31002144 59.4545658,6.31002144 57.6269421,6.31002144 C57.6269421,6.86601934 57.6269421,7.38811303 57.6269421,7.94670852 C59.7994145,7.94670852 61.9439869,7.94670852 64.1282565,7.94670852 C64.1282565,8.76206072 64.1282565,9.5413514 64.1282565,10.3206413 C61.0199525,10.3206413 57.9116424,10.3206413 54.7551035,10.2736961 C54.7077125,6.85123377 54.7085687,3.47571703 54.7094188,0.100200401 Z"
                id="Path"
                fill="#919FA1"></path>
            <path
                d="M89.6793587,10.3206413 C88.5750627,10.3206413 87.4707606,10.3206413 86.3196975,10.2854069 C85.3359796,8.85852435 84.3990349,7.46687776 83.3234706,5.8693494 C82.7543271,6.5238005 82.2421393,7.0966006 81.752904,7.68837866 C81.6500983,7.81272475 81.5869288,8.00543046 81.5819933,8.16894259 C81.5603619,8.88571192 81.5668446,9.60333066 81.5631263,10.3206413 C80.6258269,10.3206413 79.6885336,10.3206413 78.7167107,10.2751233 C78.6825849,8.21630441 78.6862604,6.20299699 78.6822546,4.18970451 C78.6795393,2.82652535 78.6660051,1.46336764 78.6573146,0.100200401 C79.594614,0.100200401 80.5319073,0.100200401 81.5201937,0.147011924 C81.5711745,1.56890511 81.5711745,2.94398687 81.5711745,4.41906032 C81.7720341,4.23068427 81.9025319,4.11443918 82.0262167,3.9913502 C83.2995153,2.7242016 84.5717191,1.45594469 85.8928183,0.191545291 C86.9155976,0.196609519 87.8898116,0.202064329 88.863934,0.195190581 C89.0023577,0.194213727 89.1403596,0.133348297 89.2785571,0.100200401 C89.323092,0.100200401 89.3676269,0.100200401 89.468341,0.130958116 C88.2023936,1.44926403 86.8802668,2.73681232 85.5352551,4.04664619 C86.3677918,5.28725301 87.1956927,6.50884369 88.0104202,7.73915772 C88.5761207,8.59343277 89.1236881,9.45971994 89.6793587,10.3206413 Z"
                id="Path"
                fill="#919FA1"></path>
            <path
                d="M20.3406814,0.100200401 C22.9479849,0.100200401 25.5552885,0.100200401 28.2043824,0.146915431 C28.2517978,3.5357508 28.2574242,6.87787084 28.2538098,10.2446592 C28.2485503,10.2864321 28.2525317,10.3035363 28.256513,10.3206413 C27.719948,10.3206413 27.1833799,10.3206413 26.594045,10.2740087 C26.5412753,9.45169679 26.5412753,8.67601824 26.5412753,7.8625979 C24.4326941,7.8625979 22.390926,7.8625979 20.3008709,7.8625979 C20.3008709,7.64454168 20.3008693,7.46547265 20.3008693,7.28640431 C20.3008693,5.42138166 20.2979965,3.5563517 20.3026949,1.69134098 C20.3040313,1.16093226 20.3274102,0.630579058 20.3406814,0.100200401 Z"
                id="Path"
                fill="transparent"></path>
            <path
                d="M37.4279902,0.100200401 C38.5106456,3.48116433 39.5463412,6.86212745 40.5815996,10.2818659 C39.5436655,10.3206413 38.5061657,10.3206413 37.4194128,10.273732 C37.3701566,9.45023056 37.3701566,8.67363848 37.3701566,7.85180671 C35.2551171,7.85180671 33.2110999,7.85180671 31.1623246,7.85180671 C31.1623246,5.23641733 31.1623246,2.66830892 31.1623246,0.100200401 C33.2352266,0.100200401 35.3081285,0.100200401 37.4279902,0.100200401 Z"
                id="Path"
                fill="transparent"></path>
            <path
                d="M89.7263215,10.3206413 C89.1236881,9.45971994 88.5761207,8.59343277 88.0104202,7.73915772 C87.1956927,6.50884369 86.3677918,5.28725301 85.5352551,4.04664619 C86.8802668,2.73681232 88.2023936,1.44926403 89.5017391,0.130958116 C91.1176601,0.100200401 92.7563562,0.100200401 94.4465286,0.146974649 C94.4979987,1.65668788 94.4979987,3.11962675 94.4979987,4.62866112 C92.9732145,4.62866112 91.497179,4.62866112 89.9939527,4.62866112 C89.9939527,5.03198627 89.9939527,5.38890431 89.9939527,5.80909058 C91.5008973,5.80909058 92.9893907,5.80909058 94.488978,5.80909058 C94.488978,7.35495421 94.488978,8.8377981 94.488978,10.3206413 C92.9170781,10.3206413 91.3451782,10.3206413 89.7263215,10.3206413 Z"
                id="Path"
                fill="transparent"></path>
            <path
                d="M7.56198978,10.3206413 C7.88527585,10.2084326 8.26573036,10.1219078 8.62397866,9.97951563 C10.0825728,9.39977565 10.7796419,7.60208617 9.98457946,6.25013527 C9.68668297,5.74358327 9.10308778,5.405048 8.65793096,4.9973994 C9.8056503,4.52827655 10.0883324,3.48878948 9.88251142,2.25908587 C9.67909329,1.04373307 8.73964729,0.330325251 7.22945521,0.137188878 C8.85312876,0.100200401 10.4918295,0.100200401 12.1830331,0.146829359 C12.2355375,0.754238477 12.2355375,1.31501864 12.2355375,1.87306533 C13.1948299,1.87306533 14.0867092,1.87306533 15.0300601,1.87306533 C15.0300601,1.26122485 15.0300601,0.680712625 15.0300601,0.100200401 C15.8003583,0.100200401 16.5706581,0.100200401 17.3764215,0.145944489 C17.4097769,1.83867204 17.403626,3.48566323 17.4066792,5.13263737 C17.4098227,6.82874078 17.4219365,8.52482705 17.4196446,10.246406 C17.4177334,10.2881415 17.4263016,10.304391 17.4348697,10.3206413 C16.6645715,10.3206413 15.8942717,10.3206413 15.0703461,10.2740959 C15.0167186,7.84664649 15.0167186,5.46574299 15.0167186,3.07547024 C14.0622019,3.07547024 13.1580039,3.07547024 12.2244489,3.07547024 C12.2244489,5.51711984 12.2244489,7.91888036 12.2244489,10.3206413 C10.6859494,10.3206413 9.1474491,10.3206413 7.56198978,10.3206413 Z"
                id="Path"
                fill="transparent"></path>
            <path
                d="M64.1752132,10.3206413 C64.1282565,9.5413514 64.1282565,8.76206072 64.1282565,7.94670852 C61.9439869,7.94670852 59.7994145,7.94670852 57.6269421,7.94670852 C57.6269421,7.38811303 57.6269421,6.86601934 57.6269421,6.31002144 C59.4545658,6.31002144 61.2661052,6.31002144 63.1134094,6.31002144 C63.1134094,5.57141924 63.1134094,4.8651021 63.1134094,4.11213737 C61.3004573,4.11213737 59.4747478,4.11213737 57.6241839,4.11213737 C57.6241839,3.55853457 57.6241839,3.05036152 57.6241839,2.50403036 C59.7712882,2.50403036 61.9149493,2.50403036 64.1340236,2.50403036 C64.1340236,1.74368226 64.1340236,1.01854088 64.1333692,0.222639178 C64.1312226,0.134652806 64.1297427,0.117426553 64.1282565,0.100200401 C64.8651551,0.100200401 65.6020537,0.100200401 66.385909,0.100200401 C66.4353365,3.47579279 66.4378072,6.85138507 66.4365718,10.2738099 C65.6959671,10.3206413 64.9590685,10.3206413 64.1752132,10.3206413 Z"
                id="Path"
                fill="transparent"></path>
            <path
                d="M17.4301255,10.2209209 C17.4219365,8.52482705 17.4098227,6.82874078 17.4066792,5.13263737 C17.403626,3.48566323 17.4097769,1.83867204 17.4233783,0.145944489 C18.3721676,0.100200401 19.3094639,0.100200401 20.2937216,0.100200401 C20.3274102,0.630579058 20.3040313,1.16093226 20.3026949,1.69134098 C20.2979965,3.5563517 20.3008693,5.42138166 20.3008693,7.28640431 C20.3008693,7.46547265 20.3008709,7.64454168 20.3008709,7.8625979 C22.390926,7.8625979 24.4326941,7.8625979 26.5412753,7.8625979 C26.5412753,8.67601824 26.5412753,9.45169679 26.5471923,10.2740087 C26.5085713,10.3206413 26.4640396,10.3206413 26.3564176,10.2911879 C26.1127938,10.2483272 25.9322661,10.2234093 25.751714,10.223235 C22.9778527,10.2205655 20.2039898,10.2211182 17.4301255,10.2209209 Z"
                id="Path"
                fill="#919FA1"></path>
            <path
                d="M31.1153649,0.100200401 C31.1623246,2.66830892 31.1623246,5.23641733 31.1623246,7.85180671 C33.2110999,7.85180671 35.2551171,7.85180671 37.3701566,7.85180671 C37.3701566,8.67363848 37.3701566,9.45023056 37.372453,10.273732 C37.3302146,10.3206413 37.2856829,10.3206413 37.1781557,10.2910594 C36.9338439,10.2479923 36.7525395,10.2229407 36.5712045,10.2227549 C33.801823,10.2199218 31.0324354,10.2203347 28.2630508,10.2199914 C28.2574242,6.87787084 28.2517978,3.5357508 28.2513422,0.146915431 C29.1938094,0.100200401 30.1311088,0.100200401 31.1153649,0.100200401 Z"
                id="Path"
                fill="#919FA1"></path>
            <path
                d="M54.6625661,0.100200401 C54.7085687,3.47571703 54.7077125,6.85123377 54.7081407,10.2736961 C53.1375189,10.3206413 51.565619,10.3206413 49.9467593,10.3206413 C50.9355136,6.93989529 51.9712277,3.5591492 53.0064769,0.139301804 C53.5425771,0.100200401 54.0791483,0.100200401 54.6625661,0.100200401 Z"
                id="Path"
                fill="transparent"></path>
            <path
                d="M78.6103579,0.100200401 C78.6660051,1.46336764 78.6795393,2.82652535 78.6822546,4.18970451 C78.6862604,6.20299699 78.6825849,8.21630441 78.6697479,10.2751233 C78.0539901,10.3206413 77.4506716,10.3206413 76.8004271,10.3206413 C76.6887474,10.1706014 76.6442003,10.0073415 76.5560479,9.87260621 C75.8374354,8.77416834 75.1106644,7.68106343 74.3859606,6.585698 C76.1431676,5.51693287 76.6761306,4.31953226 76.2512696,2.42643467 C75.9657499,1.15421703 74.9424753,0.322896994 73.4624155,0.136776754 C75.1523922,0.100200401 76.8578967,0.100200401 78.6103579,0.100200401 Z"
                id="Path"
                fill="transparent"></path>
            <path
                d="M94.5351335,10.3206413 C94.488978,8.8377981 94.488978,7.35495421 94.488978,5.80909058 C92.9893907,5.80909058 91.5008973,5.80909058 89.9939527,5.80909058 C89.9939527,5.38890431 89.9939527,5.03198627 89.9939527,4.62866112 C91.497179,4.62866112 92.9732145,4.62866112 94.4979987,4.62866112 C94.4979987,3.11962675 94.4979987,1.65668788 94.4934914,0.146974649 C94.8590112,0.100200401 95.2290384,0.100200401 95.6308185,0.145285772 C95.6625653,1.65320321 95.6625653,3.11603527 95.6625653,4.60921844 C97.1404112,4.60921844 98.5702056,4.60921844 100,4.60921844 C100,4.9792494 100,5.34928036 99.9533369,5.759751 C98.4967187,5.80019098 97.0867699,5.80019098 95.6913828,5.80019098 C95.6913828,7.35627445 95.6913828,8.83845782 95.6913828,10.3206413 C95.3213495,10.3206413 94.9513223,10.3206413 94.5351335,10.3206413 Z"
                id="Path"
                fill="#919FA1"></path>
            <path
                d="M12.2714086,10.3206413 C12.2244489,7.91888036 12.2244489,5.51711984 12.2244489,3.07547024 C13.1580039,3.07547024 14.0622019,3.07547024 15.0167186,3.07547024 C15.0167186,5.46574299 15.0167186,7.84664649 15.0233894,10.2740959 C14.1261634,10.3206413 13.2222651,10.3206413 12.2714086,10.3206413 Z"
                id="Path"
                fill="#919FA1"></path>
            <path
                d="M100,4.56225872 C98.5702056,4.60921844 97.1404112,4.60921844 95.6625653,4.60921844 C95.6625653,3.11603527 95.6625653,1.65320321 95.676974,0.145285772 C97.1204127,0.100200401 98.5494365,0.100200401 100,0.100200401 C100,1.57182996 100,3.04356443 100,4.56225872 Z"
                id="Path"
                fill="transparent"></path>
            <path
                d="M95.7383395,10.3206413 C95.6913828,8.83845782 95.6913828,7.35627445 95.6913828,5.80019098 C97.0867699,5.80019098 98.4967187,5.80019098 99.9533369,5.80590731 C100,7.30711764 100,8.80261122 100,10.3206413 C98.5951823,10.3206413 97.1902423,10.3206413 95.7383395,10.3206413 Z"
                id="Path"
                fill="transparent"></path>
            <path
                d="M81.610083,10.3206413 C81.5668446,9.60333066 81.5603619,8.88571192 81.5819933,8.16894259 C81.5869288,8.00543046 81.6500983,7.81272475 81.752904,7.68837866 C82.2421393,7.0966006 82.7543271,6.5238005 83.3234706,5.8693494 C84.3990349,7.46687776 85.3359796,8.85852435 86.2727347,10.2854069 C84.7340433,10.3206413 83.1955476,10.3206413 81.610083,10.3206413 Z"
                id="Path"
                fill="transparent"></path>
            <path
                d="M43.4337333,10.3206413 C44.0010331,8.29184228 44.6152957,6.26304379 45.2764752,4.07928126 C45.9193533,6.22427986 46.5217147,8.23408517 47.1091322,10.2822665 C45.8896889,10.3206413 44.6851925,10.3206413 43.4337333,10.3206413 Z"
                id="Path"
                fill="transparent"></path>
            <path
                d="M50.0532407,0.100200501 C49.7232013,1.54569609 49.3487066,2.99185251 48.9680105,4.43637365 C48.8073498,5.04599208 48.6336045,5.65216283 48.4280359,6.396698 C47.7815738,4.24260962 47.1713691,2.20933026 46.5771754,0.138125651 C47.7308836,0.100200501 48.8685838,0.100200501 50.0532407,0.100200501 Z"
                id="Path"
                fill="transparent"></path>
            <path
                d="M44.0412135,0.1002001 C43.5452356,1.94436032 43.0027842,3.78866563 42.4586661,5.63247926 C42.3978572,5.83854098 42.327572,6.04180581 42.2158098,6.38877124 C41.6365844,4.23608597 41.0904451,2.20637295 40.5627356,0.13843016 C41.7188595,0.1002001 42.8565597,0.1002001 44.0412135,0.1002001 Z"
                id="Path"
                fill="transparent"></path>
            <path
                d="M69.3856341,10.3206413 C69.3386774,9.17036333 69.3386774,8.02008527 69.3386774,6.80308677 C69.9196121,6.80308677 70.4801999,6.78881563 71.0388673,6.81520741 C71.1497275,6.82044479 71.2817603,6.96267485 71.355663,7.07387675 C72.0568334,8.12895471 72.747552,9.19098257 73.4440867,10.2858243 C72.1087928,10.3206413 70.7706979,10.3206413 69.3856341,10.3206413 Z"
                id="Path"
                fill="transparent"></path>
            <path
                d="M85.8442226,0.187997094 C84.5717191,1.45594469 83.2995153,2.7242016 82.0262167,3.9913502 C81.9025319,4.11443918 81.7720341,4.23068427 81.5711745,4.41906032 C81.5711745,2.94398687 81.5711745,1.56890511 81.5671504,0.147011924 C82.9680234,0.100200401 84.3729268,0.100200401 85.8139986,0.120925251 C85.8501732,0.14165 85.8442226,0.187997295 85.8442226,0.187997094 Z"
                id="Path"
                fill="transparent"></path>
            <path
                d="M14.9966605,0.100200401 C15.0300601,0.680712625 15.0300601,1.26122485 15.0300601,1.87306533 C14.0867092,1.87306533 13.1948299,1.87306533 12.2355375,1.87306533 C12.2355375,1.31501864 12.2355375,0.754238477 12.2299928,0.146829359 C12.2689823,0.100200401 12.3135163,0.100200401 12.4212093,0.129531964 C13.2661334,0.139309118 14.0478956,0.11975481 14.8296593,0.100200401 C14.8741927,0.100200401 14.9187276,0.100200401 14.9966605,0.100200401 Z"
                id="Path"
                fill="#919FA1"></path>
            <path
                d="M0.103067836,0.203632064 C0.102309118,3.51094228 0.101550501,6.8182523 0.100974549,10.197776 C0.100838277,10.2868731 0.100519339,10.3037572 0.100200401,10.3206413 C0.0668004008,10.1878478 0.00445521042,10.0551017 0.00423567134,9.92225311 C-0.0011744489,6.64824218 -4.33680869e-19,3.37422014 0.0507073146,0.126061323 C0.101965731,0.169158918 0.102516733,0.186395491 0.103067836,0.203632064 Z"
                id="Path"
                fill="#9FABAC"></path>
            <path
                d="M64.0812998,0.100200401 C64.1297427,0.117426553 64.1312226,0.134652806 64.1244647,0.176469138 C61.2482289,0.200852906 58.3802248,0.20138006 55.5122269,0.19870511 C55.3309928,0.198536072 55.1497893,0.173420441 54.9391936,0.130055411 C57.9513275,0.100200401 60.9928292,0.100200401 64.0812998,0.100200401 Z"
                id="Path"
                fill="#9FABAC"></path>
            <path
                d="M17.4196446,10.246406 C20.2039898,10.2211182 22.9778527,10.2205655 25.751714,10.223235 C25.9322661,10.2234093 26.1127938,10.2483272 26.3230195,10.2911879 C23.4113995,10.3206413 20.4700952,10.3206413 17.4818295,10.3206413 C17.4263016,10.304391 17.4177334,10.2881415 17.4196446,10.246406 Z"
                id="Path"
                fill="#9FABAC"></path>
            <path
                d="M28.2538098,10.2446592 C31.0324354,10.2203347 33.801823,10.2199218 36.5712045,10.2227549 C36.7525395,10.2229407 36.9338439,10.2479923 37.1447546,10.2910594 C34.2330443,10.3206413 31.2917369,10.3206413 28.3034727,10.3206413 C28.2525317,10.3035363 28.2485503,10.2864321 28.2538098,10.2446592 Z"
                id="Path"
                fill="#9FABAC"></path>
            <path
                d="M0.14716002,10.3206413 C0.100519339,10.3037572 0.100838277,10.2868731 0.101905511,10.2446577 C2.20555251,10.2197445 4.30845251,10.2191841 6.41134719,10.2223191 C6.59274409,10.2225898 6.77410501,10.2473142 6.98475501,10.2906603 C4.74072535,10.3206413 2.46742244,10.3206413 0.14716002,10.3206413 Z"
                id="Path"
                fill="#9FABAC"></path>
            <path
                d="M0.149726453,0.202343888 C0.102516733,0.186395491 0.101965731,0.169158918 0.100807515,0.126061323 C2.23990251,0.100200401 4.37960461,0.100200401 6.56626673,0.100200401 C6.44062856,0.133509619 6.26813357,0.19516483 6.09541723,0.195791583 C4.12909289,0.202926954 2.16273437,0.200746393 0.149726453,0.202343888 Z"
                id="Path"
                fill="#9FABAC"></path>
            <path
                d="M72.9991355,0.1002002 C72.9403998,0.133214429 72.8347809,0.194735271 72.7290029,0.195017134 C70.7814311,0.200205912 68.8338347,0.198440681 66.8862444,0.195865832 C66.8217171,0.195780561 66.7572205,0.171785571 66.6629891,0.129568036 C68.7395665,0.100200401 70.8458726,0.100200401 72.9991355,0.1002002 Z"
                id="Path"
                fill="#9FABAC"></path>
            <path
                d="M85.8928183,0.191545491 C85.8442226,0.187997295 85.8501732,0.14165 85.8609553,0.120925251 C86.9760395,0.100200401 88.0803416,0.100200401 89.2316004,0.100200802 C89.1403596,0.133348297 89.0023577,0.194213727 88.863934,0.195190581 C87.8898116,0.202064329 86.9155976,0.196609519 85.8928183,0.191545491 Z"
                id="Path"
                fill="#9FABAC"></path>
            <path
                d="M40.3338018,0.100200301 C40.0432151,0.133316633 39.7059622,0.190018838 39.368058,0.194174048 C38.8237045,0.200868036 38.2789261,0.17290521 37.7048378,0.129891683 C38.5458478,0.100200401 39.4163449,0.100200401 40.3338018,0.100200301 Z"
                id="Path"
                fill="#9FABAC"></path>
            <path
                d="M52.7586545,0.100200401 C51.9902659,0.119994289 51.1749206,0.139788277 50.3300883,0.129891283 C51.1042991,0.100200401 51.9079969,0.100200401 52.7586545,0.100200401 Z"
                id="Path"
                fill="#9FABAC"></path>
            <path
                d="M14.7827026,0.100200401 C14.0478956,0.11975481 13.2661334,0.139309118 12.4546097,0.129531964 C13.1951479,0.100200401 13.9654477,0.100200401 14.7827026,0.100200401 Z"
                id="Path"
                fill="#7AA5C8"></path>
            <path
                d="M46.3458381,0.100200401 C45.7111458,0.119841283 45.029503,0.139482064 44.3182201,0.129661623 C44.9586827,0.100200401 45.6287851,0.100200401 46.3458381,0.100200401 Z"
                id="Path"
                fill="#9FABAC"></path>
            <path
                d="M2.90618126,7.71013006 C2.90727174,7.24349549 2.90768076,6.82646653 2.91150521,6.40946854 C2.91177164,6.38043397 2.93739088,6.35163267 2.96168106,6.30085551 C4.11582325,6.30085551 5.2799986,6.28334539 6.44327295,6.30814128 C7.0372006,6.3208009 7.32389459,6.61984068 7.32539234,7.11321703 C7.32690972,7.61733737 7.05058036,7.91717715 6.46246944,7.93355812 C5.34571764,7.96466593 4.2277506,7.95636603 3.11036543,7.95029539 C3.04200741,7.94992465 2.97432024,7.82611673 2.90618126,7.71013006 Z"
                id="Path"
                fill="transparent"></path>
            <path
                d="M5.88968577,4.11141192 C4.88103928,4.1114505 3.91960792,4.1114505 2.93213186,4.1114505 C2.93213186,3.56196253 2.93213186,3.03906192 2.93213186,2.47613868 C4.01327325,2.47613868 5.08760291,2.45850992 6.16097495,2.48294669 C6.77562014,2.49694008 7.08788948,2.8088499 7.08555572,3.30648858 C7.08332715,3.7761486 6.78076733,4.04612745 6.18611303,4.10552285 C6.10367044,4.11375731 6.020002,4.10972625 5.88968577,4.11141192 Z"
                id="Path"
                fill="transparent"></path>
            <path
                d="M69.340457,3.60483848 C69.340457,3.20834659 69.340457,2.86116363 69.340457,2.50090731 C70.4439519,2.50090731 71.5073335,2.46966102 72.5676329,2.51327565 C73.1518701,2.53730802 73.4339161,2.91936263 73.4236356,3.4796487 C73.4136364,4.02448036 73.1039839,4.38794349 72.5195141,4.40638968 C71.4865094,4.43899118 70.4517372,4.41552275 69.340457,4.41552275 C69.340457,4.16906463 69.340457,3.91160591 69.340457,3.60483848 Z"
                id="Path"
                fill="transparent"></path>
        </g>
    </g>
</svg>
