<svg xmlns="http://www.w3.org/2000/svg" width="119.949" height="25.474" viewBox="0 0 119.949 25.474" class="sc-1t1a84s eVDERM">
    <g transform="translate(0 -0.189)">
        <path fill="#00A050" d="M7.1,12.607h8.1v3.982H0V14.338L8.381,3.983H.207V0h15V2.563Z" transform="translate(86.377 8.554)"></path>
        <path fill="#00A050" d="M.208,0V3.983H8.381L0,14.338v2.251H15.2V12.607H7.1L15.2,2.563V0Z" transform="translate(104.745 8.554)"></path>
        <path fill="#00A050" d="M5.533,24.954H.539V8.365H5.533V24.953ZM3.018,5.611A2.871,2.871,0,0,1,0,2.839,2.744,2.744,0,0,1,.876.81,3.118,3.118,0,0,1,3.018,0,2.85,2.85,0,0,1,6,2.839a2.666,2.666,0,0,1-.858,1.97A3.093,3.093,0,0,1,3.018,5.611Z" transform="translate(77.099 0.189)"></path>
        <path fill="#00A050" d="M9.515,23.9A8.566,8.566,0,0,1,4.81,22.582v.968H0V0H4.81V7.946A8.567,8.567,0,0,1,9.515,6.631a7.7,7.7,0,0,1,5.812,2.526,8.517,8.517,0,0,1,2.422,6.089,8.493,8.493,0,0,1-2.422,6.16A7.779,7.779,0,0,1,9.515,23.9Zm-.8-13.182a4.662,4.662,0,0,0-3.91,1.9v5.294a4.591,4.591,0,0,0,3.91,1.938A3.9,3.9,0,0,0,11.764,18.5a4.709,4.709,0,0,0,1.246-3.253,4.568,4.568,0,0,0-1.246-3.182A3.952,3.952,0,0,0,8.719,10.714Z" transform="translate(56.562 1.592)"></path>
        <path fill="#00A050" d="M8.981,17.615A8.854,8.854,0,0,1,2.552,15.1,8.557,8.557,0,0,1,0,8.737,8.219,8.219,0,0,1,2.552,2.481,8.962,8.962,0,0,1,8.981,0a8.763,8.763,0,0,1,6.361,2.481,8.219,8.219,0,0,1,2.552,6.256,8.557,8.557,0,0,1-2.552,6.36A8.659,8.659,0,0,1,8.981,17.615Zm0-13.281a4.038,4.038,0,0,0-3.04,1.258A4.567,4.567,0,0,0,4.788,8.737,4.235,4.235,0,0,0,8.981,13.28a3.925,3.925,0,0,0,2.993-1.315,4.848,4.848,0,0,0,1.132-3.228A4.086,4.086,0,0,0,8.981,4.333Z" transform="translate(35.672 8.048)"></path>
        <path fill="#00A050" d="M4.858,2.167A8.4,8.4,0,0,1,10.729,0V4.613A7.991,7.991,0,0,0,4.858,7.025v10H0V.279H4.858Z" transform="translate(22.9 8.118)"></path>
        <path fill="#00A050" d="M11.1,23.765H0V0H10.543c5.033,0,8.038,2.339,8.038,6.256a5.979,5.979,0,0,1-.913,3.207,4.841,4.841,0,0,1-2.406,2,5.223,5.223,0,0,1,3.271,2.044,6.315,6.315,0,0,1,1.1,3.722C19.629,21.2,16.282,23.765,11.1,23.765ZM5.068,14.119V19.4h5.684a4.863,4.863,0,0,0,2.914-.782,2.427,2.427,0,0,0,1-2.014c0-1.6-1.341-2.481-3.775-2.481Zm0-9.751V9.821h4.81c2.436,0,3.949-1.1,3.949-2.866,0-1.716-1.329-2.587-3.949-2.587Z" transform="translate(0 1.373)"></path>
    </g>
</svg>