<svg xmlns="http://www.w3.org/2000/svg" width="184" height="91" viewBox="0 0 184 91">
  <g fill="none" fill-rule="evenodd">
    <rect width="184" height="91" fill="#f8f9fa" rx="4"/>
    <g fill="#E7242E" transform="translate(38 16)">
      <path d="M86.1599361 27.7811667L103.291813 46.5366982C106.839107 41.816893 108.923245 36.0955056 108.923245 29.9306465 108.923245 23.4263959 106.601529 17.4093607 102.683939 12.5477653L86.1599361 27.7811667zM37.6162334 10.963938C50.4094326 10.963938 60.0485708 13.9611425 61.0414856 23.8834432L74.5048204 10.9624296 101.31352 10.9624296C95.4821936 4.6784064 86.8163085.687161705 77.1542317.687161705L25.6373554.687161705C15.9752786.687161705 7.30611654 4.6784064 1.47315172 10.963938L37.6162334 10.963938zM16.5384218 23.4739107L11.9703584 35.0373581 30.4015441 35.0373581C35.8511062 35.0373581 37.4994103 32.9602818 38.7184344 28.9630035 39.9259892 25.0079606 36.8948136 23.4739107 33.1705639 23.4739107L16.5384218 23.4739107zM74.6170559 48.1158494L60.3770847 31.5490163C57.7440582 42.8439673 49.1240504 48.114341 32.968704 48.114341L.769427459 48.114341C6.59419991 54.8523947 15.5763103 59.1800141 25.6381746 59.1800141L77.1550509 59.1800141C87.2119998 59.1800141 96.1941102 54.8539031 102.018883 48.1158494L74.6170559 48.1158494z"/>
    </g>
  </g>
</svg>
