<?xml version="1.0" encoding="utf-8"?>
<!-- Generator: Adobe Illustrator 27.5.0, SVG Export Plug-In . SVG Version: 6.00 Build 0)  -->
<svg version="1.1" id="Layer_1" xmlns="http://www.w3.org/2000/svg" xmlns:xlink="http://www.w3.org/1999/xlink" x="0px" y="0px"
	 viewBox="0 0 184 91" style="enable-background:new 0 0 184 91;" xml:space="preserve">
<style type="text/css">
	.st0{fill-rule:evenodd;clip-rule:evenodd;fill:#F8F9FA;}
	.st1{fill:#1334CB;}
</style>
<g>
	<path class="st0" d="M4,0h176c2.2,0,4,1.8,4,4v83c0,2.2-1.8,4-4,4H4c-2.2,0-4-1.8-4-4V4C0,1.8,1.8,0,4,0z"/>
	<g>
		<g>
			<path class="st1" d="M76.5,16.2L59.7,56.4h-11l-8.3-32.1c-0.5-2-0.9-2.7-2.5-3.5c-2.5-1.4-6.6-2.6-10.3-3.4l0.2-1.2h17.7
				c2.3,0,4.3,1.5,4.8,4.1l4.4,23.3l10.8-27.4H76.5z M119.6,43.3c0-10.6-14.7-11.2-14.6-15.9c0-1.4,1.4-3,4.4-3.4
				c1.5-0.2,5.6-0.3,10.3,1.8l1.8-8.5c-2.5-0.9-5.7-1.8-9.7-1.8c-10.3,0-17.5,5.5-17.6,13.3c-0.1,5.8,5.2,9,9.1,10.9
				c4.1,2,5.4,3.2,5.4,5c0,2.7-3.2,3.9-6.2,3.9c-5.2,0.1-8.3-1.4-10.7-2.5l-1.9,8.8c2.4,1.1,6.9,2.1,11.6,2.1
				C112.4,57.1,119.6,51.7,119.6,43.3 M146.7,56.4h9.6l-8.4-40.2h-8.9c-2,0-3.7,1.2-4.4,2.9L119,56.4H130l2.2-6h13.3L146.7,56.4z
				 M135.1,42.2l5.5-15.1l3.1,15.1H135.1z M91.4,16.2l-8.6,40.2H72.4L81,16.2H91.4z"/>
		</g>
		<g>
			<path class="st1" d="M97.7,75.3V64.4h6.8v1.2h-5.4v3.5h4.3v1.1h-4.3v3.9h5.4v1.2H97.7z"/>
			<path class="st1" d="M107.9,64v11.3h-1.3V64H107.9z"/>
			<path class="st1" d="M114,74.5c0.7,0,1.3-0.1,1.8-0.3c0.5-0.2,0.9-0.4,1.2-0.7h0l-0.1,1.2c-0.2,0.2-0.6,0.4-1.1,0.6
				c-0.5,0.2-1.1,0.3-1.9,0.3c-0.8,0-1.5-0.2-2.2-0.5c-0.6-0.4-1.1-0.9-1.4-1.5c-0.3-0.6-0.5-1.4-0.5-2.2c0-0.8,0.2-1.5,0.5-2.2
				c0.3-0.6,0.8-1.1,1.4-1.5c0.6-0.4,1.2-0.6,2-0.6c0.8,0,1.5,0.2,2.1,0.5c0.5,0.3,0.9,0.7,1.2,1.3c0.2,0.5,0.4,1.2,0.4,1.9
				c0,0.1,0,0.2,0,0.3c0,0.1,0,0.3,0,0.4h-6.1c0,0,0,0,0,0c0,0,0,0,0,0c0,1,0.3,1.7,0.8,2.3C112.4,74.2,113.1,74.5,114,74.5z
				 M113.7,68c-0.7,0-1.3,0.2-1.7,0.7c-0.4,0.4-0.7,1-0.8,1.8h4.9v-0.1c0-0.5-0.1-0.9-0.2-1.2c-0.1-0.3-0.4-0.6-0.7-0.8
				C114.7,68.1,114.3,68,113.7,68z"/>
			<path class="st1" d="M118.6,71.3c0-0.8,0.2-1.5,0.5-2.2c0.3-0.6,0.8-1.1,1.4-1.5c0.6-0.4,1.3-0.6,2.1-0.6c0.7,0,1.3,0.1,1.7,0.2
				c0.4,0.2,0.7,0.3,0.9,0.5l0.1,1.3h0c-0.4-0.3-0.7-0.6-1.2-0.8c-0.4-0.2-0.9-0.3-1.5-0.3c-0.6,0-1,0.1-1.5,0.4
				c-0.4,0.3-0.8,0.6-1,1.1c-0.2,0.5-0.4,1-0.4,1.7c0,1,0.3,1.8,0.8,2.3c0.5,0.6,1.2,0.8,2.1,0.8c0.5,0,0.8,0,1.2-0.1
				c0.3-0.1,0.6-0.2,0.8-0.3c0.2-0.1,0.5-0.3,0.7-0.5h0l-0.1,1.2c-0.2,0.2-0.6,0.4-1,0.6c-0.5,0.2-1,0.3-1.7,0.3
				c-0.8,0-1.5-0.2-2.1-0.5c-0.6-0.4-1.1-0.9-1.4-1.5C118.7,72.8,118.6,72.1,118.6,71.3z"/>
			<path class="st1" d="M129.1,73.1c0,0.5,0.1,0.9,0.3,1c0.2,0.2,0.5,0.3,0.9,0.3c0.3,0,0.6,0,0.8-0.1c0.2-0.1,0.4-0.1,0.6-0.2h0
				l-0.1,1.1c-0.1,0.1-0.4,0.1-0.6,0.2c-0.3,0.1-0.6,0.1-0.9,0.1c-0.7,0-1.3-0.2-1.7-0.5c-0.4-0.3-0.6-0.9-0.6-1.7v-5h-1.5l0.2-0.8
				l1.3-0.2v-1.7l1.3-0.2v1.9h2.5l-0.2,1.1h-2.3V73.1z"/>
			<path class="st1" d="M136.5,68.3c-0.6,0-1.1,0.2-1.5,0.6c-0.4,0.4-0.5,1-0.5,1.8v4.6h-1.3v-8.1h1.2v1.7h0.1
				c0.2-0.7,0.5-1.2,0.9-1.5c0.4-0.3,0.9-0.4,1.4-0.4c0.1,0,0.3,0,0.4,0c0.1,0,0.2,0,0.3,0.1l-0.2,1.4h0c-0.1,0-0.2-0.1-0.3-0.1
				C136.8,68.4,136.6,68.3,136.5,68.3z"/>
			<path class="st1" d="M142.3,67c0.8,0,1.5,0.2,2.1,0.6c0.6,0.4,1.1,0.9,1.4,1.5c0.3,0.6,0.5,1.4,0.5,2.2c0,0.8-0.2,1.5-0.5,2.2
				c-0.3,0.6-0.8,1.1-1.4,1.5c-0.6,0.4-1.3,0.5-2.1,0.5c-0.8,0-1.5-0.2-2.1-0.5c-0.6-0.4-1.1-0.9-1.4-1.5c-0.3-0.6-0.5-1.4-0.5-2.2
				c0-0.8,0.2-1.5,0.5-2.2c0.3-0.6,0.8-1.1,1.4-1.5C140.8,67.2,141.5,67,142.3,67z M142.3,74.4c0.9,0,1.6-0.3,2-0.9
				c0.5-0.6,0.7-1.3,0.7-2.3c0-1-0.2-1.8-0.7-2.3c-0.5-0.6-1.1-0.9-2-0.9c-0.9,0-1.6,0.3-2,0.9c-0.5,0.6-0.7,1.3-0.7,2.3
				c0,1,0.2,1.8,0.7,2.3C140.8,74.2,141.4,74.4,142.3,74.4z"/>
			<path class="st1" d="M152.4,67c0.9,0,1.6,0.2,2.1,0.7c0.5,0.4,0.7,1.1,0.7,2.1v5.5h-1.3v-5.1c0-0.7-0.1-1.2-0.4-1.5
				c-0.3-0.3-0.8-0.5-1.6-0.5c-0.4,0-0.9,0.1-1.2,0.3c-0.4,0.2-0.7,0.4-0.9,0.8c-0.2,0.3-0.3,0.7-0.3,1.2v4.9h-1.3v-8.1h1.2v1.7h0.1
				c0.2-0.5,0.4-0.8,0.7-1.1c0.3-0.3,0.7-0.5,1-0.6C151.6,67.1,152,67,152.4,67z"/>
		</g>
	</g>
</g>
</svg>
