<svg xmlns="http://www.w3.org/2000/svg" width="184" height="91" viewBox="0 0 184 91">
  <g fill="none" fill-rule="evenodd">
    <rect width="184" height="91" fill="#f8f9fa" rx="4"/>
    <g transform="translate(41 8)">
      <path fill="#1B1B1A" d="M22.2228687,70.8727928 C22.3042604,69.6572167 23.5007182,68.7293782 24.894144,68.8001586 C26.2875697,68.8724776 27.3489174,69.9157189 27.2691535,71.1328338 C27.1893897,72.2930166 26.0906018,73.2023906 24.7590338,73.2085454 C23.3721194,73.231626 22.2277522,72.2714747 22.200079,71.0620534 C22.1984512,70.9989665 22.200079,70.9358797 22.2049625,70.8727928 L22.2228687,70.8727928 Z M28.9897739,70.8727928 L28.9897739,67.2245257 L27.1714835,67.2245257 L27.1714835,68.1108192 C26.5447675,67.4076315 25.569695,67.0091071 24.5490432,67.0414199 C22.1333378,67.0414199 20.1750537,68.75092 20.1750537,70.8574058 C20.1750537,72.9654302 22.1333378,74.6733916 24.5490432,74.6733916 C25.569695,74.7057044 26.5447675,74.3087188 27.1714835,73.6055311 L27.1714835,74.4902859 L28.9897739,74.4902859 L28.9897739,70.8727928 Z M90.4046884,70.8727928 C90.4860801,69.6572167 91.682538,68.7293782 93.0743359,68.8001586 C94.4693895,68.8724776 95.5307372,69.9157189 95.4493455,71.1328338 C95.3712094,72.2930166 94.2724216,73.2023906 92.9392257,73.2085454 C91.5539391,73.2239325 90.4160833,72.254549 90.3981771,71.0451277 C90.3981771,70.9881956 90.3998049,70.9312636 90.4046884,70.8727928 Z M97.12927,70.8727928 L97.12927,64.2948333 L95.3793486,64.2948333 L95.3793486,68.1108192 C94.7542604,67.4076315 93.7759323,67.0091071 92.7552805,67.0414199 C90.3412029,67.0414199 88.3845467,68.75092 88.3845467,70.8574058 C88.3845467,72.9654302 90.3412029,74.6733916 92.7552805,74.6733916 C93.7759323,74.7057044 94.7542604,74.3087188 95.3793486,73.6055311 L95.3793486,74.4902859 L97.12927,74.4902859 L97.12927,70.8727928 Z M51.5596899,68.4616437 C52.7056849,68.4401018 53.6530842,69.2325344 53.6758738,70.2311533 L49.30514,70.2311533 C49.3702534,69.2125312 50.3567207,68.4262535 51.5255054,68.4616437 L51.5596899,68.4616437 Z M51.5596899,67.0414199 C49.1456123,67.0706553 47.2166292,68.803236 47.2491859,70.9112604 C47.2833704,73.0192849 49.2676998,74.702627 51.6834052,74.6733916 C52.940093,74.7303237 54.1788745,74.3764218 55.153947,73.6809276 L54.2798002,72.5068964 C53.5895987,72.9885108 52.7333581,73.257784 51.8494443,73.2700936 C50.5992679,73.3639546 49.4907131,72.571522 49.3474637,71.4836583 L55.5576497,71.4836583 L55.5576497,70.8727928 C55.5576497,68.5832013 53.9314438,67.056807 51.587363,67.056807 L51.5596899,67.0414199 Z M73.5094012,70.8574058 C73.5924207,69.6418296 74.7872507,68.7139911 76.1806765,68.7863102 C77.5741022,68.8570906 78.6370777,69.9018706 78.5540582,71.1174467 C78.47755,72.2791682 77.3787622,73.1870036 76.0439384,73.1931584 C74.6602797,73.2085454 73.5224238,72.2407006 73.5045177,71.0312793 C73.5028898,70.9728086 73.5045177,70.9143378 73.5094012,70.8574058 Z M80.2779342,70.8574058 L80.2779342,67.2245257 L78.4596438,67.2245257 L78.4596438,68.1108192 C77.8313,67.4076315 76.8562275,67.0091071 75.8355757,67.0414199 C73.4198703,67.0414199 71.4632141,68.75092 71.4632141,70.8574058 C71.4632141,72.9654302 73.4198703,74.6733916 75.8355757,74.6733916 C76.8562275,74.7057044 77.8313,74.3087188 78.4596438,73.6055311 L78.4596438,74.4902859 L80.2779342,74.4902859 L80.2779342,70.8574058 Z M63.2426532,70.8574058 C63.156378,72.8915724 64.9779241,74.6026113 67.3073543,74.676469 C67.4392088,74.6810852 67.5710634,74.6795464 67.7029179,74.6733916 C68.7951944,74.7210915 69.8695647,74.411812 70.7111548,73.8040239 L69.8370081,72.5207448 C69.2070364,72.9392723 68.4419545,73.1700778 67.6508272,73.1777714 C66.1727541,73.0731395 65.0707106,71.9437308 65.1911703,70.6527581 C65.2969795,69.5079624 66.3387932,68.600127 67.6508272,68.5062661 C68.4419545,68.5154983 69.2070364,68.7447652 69.8370081,69.1632927 L70.7111548,67.8815523 C69.8695647,67.2737642 68.7951944,66.962946 67.7029179,67.0106458 C65.3751155,66.8967817 63.3793913,68.4508728 63.2475367,70.4835007 C63.2393976,70.5973648 63.2377697,70.7127676 63.2426532,70.8266317 L63.2426532,70.8574058 Z M86.6785768,67.0414199 C85.775129,67.0183394 84.9286555,67.4291733 84.4744898,68.1108192 L84.4744898,67.2245257 L82.6741056,67.2245257 L82.6741056,74.5210599 L84.492396,74.5210599 L84.492396,70.4296461 C84.492396,69.2248409 85.0865553,68.5524272 86.2406895,68.5524272 C86.6297418,68.5478111 87.0171663,68.610898 87.3769175,68.735533 L87.9385202,67.2106774 C87.5217947,67.0798875 87.0855353,67.0137232 86.6427645,67.0106458 L86.6785768,67.0414199 Z M37.9623939,67.8046171 C36.933603,67.2706868 35.7501678,67.0060297 34.5520821,67.0414199 C32.4358981,67.0414199 31.055495,67.9261747 31.055495,69.3771726 C31.055495,70.5681294 32.0696355,71.3005525 33.9400165,71.5298194 L34.8141633,71.63599 C35.8120254,71.7575476 36.2840973,71.9868145 36.2840973,72.3991872 C36.2840973,72.9638915 35.6183132,73.2839419 34.3779038,73.2839419 C33.3800417,73.3100999 32.3984579,73.0408267 31.5975637,72.5207448 L30.7234169,73.7578628 C31.7815089,74.4025797 33.0495914,74.7349398 34.3420915,74.7041657 C36.7561691,74.7041657 38.1544783,73.7117016 38.1544783,72.322252 C38.1544783,70.934341 37.0524348,70.3696366 35.2341444,70.1403697 L34.3599977,70.0341991 C33.5737539,69.9418769 32.9437822,69.8049323 32.9437822,69.3156244 C32.9437822,68.8278552 33.5379416,68.4616437 34.5341759,68.4616437 C35.4555298,68.4708759 36.3606054,68.6862945 37.158244,69.0863575 L37.9623939,67.8046171 Z M61.4145959,67.0414199 C60.5111481,67.0183394 59.6663023,67.4291733 59.2121367,68.1108192 L59.2121367,67.2245257 L57.4101246,67.2245257 L57.4101246,74.5210599 L59.228415,74.5210599 L59.228415,70.4296461 C59.228415,69.2248409 59.8242022,68.5524272 60.9783364,68.5524272 C61.3673887,68.5478111 61.7531853,68.610898 62.1161922,68.735533 L62.6761671,67.2106774 C62.2594416,67.0798875 61.8215543,67.0137232 61.3804113,67.0106458 L61.4145959,67.0414199 Z M45.9029673,67.2245257 L42.9126366,67.2245257 L42.9126366,65.0118694 L41.07644,65.0118694 L41.07644,67.2245257 L39.4144217,67.2245257 L39.4144217,68.6755235 L41.1122524,68.6755235 L41.1122524,72.0329756 C41.1122524,73.7270887 41.8626838,74.7349398 44.0146801,74.7349398 C44.8172022,74.7364785 45.6050737,74.5410631 46.2871361,74.1702354 L45.7629736,72.8115598 C45.2746235,73.065446 44.72116,73.2070067 44.1546738,73.2239325 C43.280527,73.2239325 42.9468211,72.7346246 42.9468211,72.0022015 L42.9468211,68.6755235 L45.9208735,68.6755235 L45.9029673,67.2245257 Z M18.732793,74.5210599 L18.732793,69.9418769 C18.8532527,68.4447179 17.5591248,67.1475905 15.8433879,67.0444973 C15.7099055,67.0352651 15.578051,67.0352651 15.4461965,67.0414199 C14.2676448,66.9737169 13.1428116,67.472257 12.5063286,68.3400861 C11.9284476,67.498415 10.8670999,66.9998749 9.74389457,67.0414199 C8.7639386,66.9983362 7.83281766,67.4107089 7.29563249,68.1246675 L7.29563249,67.2245257 L5.47734211,67.2245257 L5.47734211,74.5210599 L7.31353867,74.5210599 L7.31353867,70.5065813 C7.16703362,69.5710493 7.91746502,68.709375 8.98857967,68.5816626 C9.11066721,68.5662756 9.23438258,68.5631981 9.35972578,68.5678143 C10.5659506,68.5678143 11.1780162,69.2556149 11.1780162,70.4911942 L11.1780162,74.551834 L13.0142127,74.551834 L13.0142127,70.5065813 C12.8725912,69.5664331 13.6327896,68.7047589 14.7104156,68.5801239 C14.8259918,68.5678143 14.9431958,68.5631981 15.0620277,68.5678143 C16.302437,68.5678143 16.8982242,69.2556149 16.8982242,70.4911942 L16.8982242,74.551834 L18.732793,74.5210599 Z"/>
      <path fill="#B9BEC3" d="M39.354843,30.4059554 C39.345076,21.2060443 43.8102242,12.5139055 51.4659266,6.83301047 C37.6960803,-3.39629356 17.7599995,-1.13747612 6.93978802,11.8784208 C-3.88367909,24.8958564 -1.49401903,43.740364 12.2774551,53.969668 C23.7781011,62.5125525 39.9669085,62.5125525 51.4659266,53.969668 C43.8134798,48.2918504 39.3467038,39.602789 39.354843,30.4059554"/>
      <path fill="#CBD0D2" d="M102.778342,30.4059554 C102.778342,46.9608714 88.5803751,60.3799088 71.066511,60.3799088 C63.9577606,60.3799088 57.0557452,58.1226301 51.4673917,53.969668 C65.237238,43.740364 67.6268981,24.8958564 56.8066866,11.8784208 C55.245594,10.0027407 53.453349,8.30862758 51.4673917,6.83301047 C65.237238,-3.39937097 85.1733189,-1.14209224 95.996786,11.872266 C100.390309,17.153098 102.778342,23.6772029 102.778342,30.3967231 L102.778342,30.4059554 Z"/>
      <path fill="#E21E26" d="M0.159697354,30.4007238 C0.159697354,13.8458077 14.357664,0.425231632 31.8699003,0.425231632 C49.3853922,0.425231632 63.5833589,13.8458077 63.5833589,30.4007238 C63.5833589,46.9556398 49.3853922,60.3762159 31.8699003,60.3762159 C14.357664,60.3762159 0.159697354,46.9556398 0.159697354,30.4007238"/>
      <path fill="#F39E1E" d="M39.3597265,30.4007238 C39.3597265,13.8458077 53.5576931,0.425231632 71.0699294,0.425231632 C88.5837935,0.425231632 102.783388,13.8458077 102.783388,30.4007238 C102.783388,46.9556398 88.5837935,60.3762159 71.0699294,60.3762159 C53.5576931,60.3762159 39.3597265,46.9556398 39.3597265,30.4007238"/>
    </g>
  </g>
</svg>
