<?xml version="1.0" encoding="utf-8"?>
<!-- Generator: Adobe Illustrator 27.5.0, SVG Export Plug-In . SVG Version: 6.00 Build 0)  -->
<svg version="1.1" id="Layer_1" xmlns="http://www.w3.org/2000/svg" xmlns:xlink="http://www.w3.org/1999/xlink" x="0px" y="0px"
	 viewBox="0 0 184 91" style="enable-background:new 0 0 184 91;" xml:space="preserve">
<style type="text/css">
	.st0{fill-rule:evenodd;clip-rule:evenodd;fill:#F8F9FA;}
	.st1{fill:#1434CB;}
</style>
<g>
	<path class="st0" d="M4,0h176c2.2,0,4,1.8,4,4v83c0,2.2-1.8,4-4,4H4c-2.2,0-4-1.8-4-4V4C0,1.8,1.8,0,4,0z"/>
	<path class="st1" d="M72.1,19.7L50.3,71.5H36.2L25.5,30.1c-0.6-2.5-1.2-3.5-3.2-4.6c-3.2-1.7-8.5-3.4-13.2-4.4l0.3-1.5h22.8
		c2.9,0,5.5,1.9,6.2,5.3l5.6,30L58,19.7H72.1z M127.5,54.6c0.1-13.7-18.9-14.4-18.8-20.5c0-1.9,1.8-3.8,5.7-4.3
		c1.9-0.3,7.2-0.4,13.2,2.3l2.4-11c-3.2-1.2-7.4-2.3-12.5-2.3c-13.2,0-22.6,7-22.6,17.1c-0.1,7.5,6.7,11.6,11.7,14.1
		c5.2,2.5,7,4.2,7,6.4c0,3.5-4.2,5-8,5.1c-6.7,0.1-10.6-1.8-13.8-3.3l-2.4,11.3c3.1,1.4,8.9,2.7,14.9,2.8
		C118.3,72.3,127.5,65.3,127.5,54.6 M162.5,71.5h12.4l-10.8-51.8h-11.4c-2.6,0-4.7,1.5-5.7,3.8l-20.1,48h14.1l2.8-7.7h17.2
		L162.5,71.5z M147.6,53.1l7.1-19.4l4.1,19.4H147.6z M91.2,19.7L80.1,71.5H66.7l11.1-51.8H91.2z"/>
</g>
</svg>
